<svg aria-hidden="true" style="position: absolute; width: 0; height: 0; overflow: hidden;" version="1.1" xmlns="http://www.w3.org/2000/svg" xmlns:xlink="http://www.w3.org/1999/xlink">
<defs>
<symbol id="icon-Assignment-ind" viewBox="0 0 32 32">
<path d="M25.066 4.085h-5.511c-0.554-1.529-2.004-2.637-3.718-2.637s-3.164 1.107-3.718 2.637h-5.511c-1.45 0-2.637 1.187-2.637 2.637v18.457c0 1.45 1.187 2.637 2.637 2.637h18.457c1.45 0 2.637-1.187 2.637-2.637v-18.457c0-1.45-1.187-2.637-2.637-2.637zM15.837 4.085c0.725 0 1.318 0.593 1.318 1.318s-0.593 1.318-1.318 1.318c-0.725 0-1.318-0.593-1.318-1.318s0.593-1.318 1.318-1.318zM15.837 9.358c2.188 0 3.955 1.767 3.955 3.955s-1.767 3.955-3.955 3.955c-2.188 0-3.955-1.767-3.955-3.955s1.767-3.955 3.955-3.955zM23.747 25.178h-15.82v-1.846c0-2.637 5.273-4.087 7.91-4.087s7.91 1.45 7.91 4.087v1.846z"></path>
</symbol>
<symbol id="icon-Brush" viewBox="0 0 32 32">
<path d="M9.245 18.684c-2.188 0-3.955 1.767-3.955 3.955 0 1.727-1.529 2.637-2.637 2.637 1.213 1.608 3.283 2.637 5.273 2.637 2.914 0 5.273-2.36 5.273-5.273 0-2.188-1.767-3.955-3.955-3.955zM27.32 6.331l-1.767-1.767c-0.514-0.514-1.345-0.514-1.859 0l-11.812 11.812 3.626 3.625 11.812-11.812c0.514-0.514 0.514-1.345 0-1.859z"></path>
</symbol>
<symbol id="icon-Fit-screen" viewBox="0 0 32 32">
<path d="M22.429 5.306h3.955c1.45 0 2.637 1.187 2.637 2.637v2.637h-2.637v-2.637h-3.955v-2.637zM5.29 10.579v-2.637h3.955v-2.637h-3.955c-1.45 0-2.637 1.187-2.637 2.637v2.637h2.637zM26.384 21.126v2.637h-3.955v2.637h3.955c1.45 0 2.637-1.187 2.637-2.637v-2.637h-2.637zM9.245 23.763h-3.955v-2.637h-2.637v2.637c0 1.45 1.187 2.637 2.637 2.637h3.955v-2.637zM23.747 10.579h-15.82v10.547h15.82v-10.547z"></path>
</symbol>
<symbol id="icon-Miscellaneous-services" viewBox="0 0 32 32">
<path d="M18.934 18.133l1.846-3.19c0.119-0.198 0.066-0.448-0.105-0.593l-1.951-1.529c0.040-0.29 0.066-0.593 0.066-0.896s-0.026-0.606-0.066-0.91l1.951-1.529c0.171-0.145 0.224-0.396 0.105-0.593l-1.846-3.19c-0.119-0.198-0.356-0.277-0.567-0.198l-2.294 0.923c-0.475-0.369-0.989-0.672-1.556-0.91l-0.343-2.439c-0.040-0.211-0.237-0.382-0.461-0.382h-3.691c-0.224 0-0.422 0.171-0.461 0.396l-0.343 2.439c-0.554 0.237-1.081 0.54-1.556 0.91l-2.294-0.923c-0.211-0.079-0.448 0-0.567 0.198l-1.846 3.19c-0.119 0.198-0.066 0.448 0.105 0.593l1.951 1.529c-0.040 0.29-0.066 0.593-0.066 0.896s0.026 0.606 0.066 0.91l-1.951 1.529c-0.171 0.145-0.224 0.396-0.105 0.593l1.846 3.19c0.119 0.198 0.356 0.277 0.567 0.198l2.294-0.923c0.475 0.369 0.989 0.672 1.556 0.91l0.343 2.439c0.040 0.211 0.237 0.382 0.461 0.382h3.691c0.224 0 0.422-0.171 0.461-0.395l0.343-2.439c0.554-0.237 1.081-0.541 1.556-0.91l2.294 0.923c0.211 0.079 0.448 0 0.567-0.198zM11.867 14.56c-1.45 0-2.637-1.187-2.637-2.637s1.187-2.637 2.637-2.637c1.45 0 2.637 1.187 2.637 2.637s-1.187 2.637-2.637 2.637z"></path>
<path d="M29.151 24.672l-1.266-0.976c0.026-0.185 0.053-0.382 0.053-0.58s-0.013-0.395-0.053-0.58l1.252-0.976c0.105-0.092 0.145-0.25 0.066-0.382l-1.187-2.043c-0.066-0.132-0.224-0.171-0.369-0.132l-1.463 0.593c-0.303-0.237-0.633-0.435-1.002-0.58l-0.224-1.556c-0.013-0.158-0.145-0.264-0.277-0.264h-2.36c-0.145 0-0.277 0.105-0.29 0.25l-0.224 1.556c-0.356 0.158-0.699 0.343-1.002 0.58l-1.463-0.593c-0.132-0.053-0.29 0-0.369 0.132l-1.187 2.043c-0.066 0.132-0.053 0.29 0.066 0.382l1.252 0.976c-0.026 0.185-0.040 0.382-0.040 0.58s0.013 0.395 0.040 0.58l-1.252 0.976c-0.105 0.092-0.145 0.25-0.066 0.382l1.187 2.043c0.066 0.132 0.224 0.171 0.369 0.132l1.463-0.593c0.303 0.237 0.633 0.435 1.002 0.58l0.224 1.556c0.026 0.145 0.145 0.25 0.29 0.25h2.36c0.145 0 0.277-0.105 0.29-0.25l0.224-1.556c0.356-0.158 0.699-0.343 0.989-0.58l1.477 0.593c0.132 0.053 0.29 0 0.369-0.132l1.187-2.043c0.079-0.119 0.040-0.277-0.066-0.369zM23.495 24.883c-0.976 0-1.78-0.791-1.78-1.78s0.791-1.78 1.78-1.78c0.989 0 1.78 0.791 1.78 1.78s-0.804 1.78-1.78 1.78z"></path>
</symbol>
<symbol id="icon-Perm-media" viewBox="0 0 32 32">
<path d="M2.917 8.101h-2.633v6.582h0.013l-0.013 11.848c0 1.448 1.185 2.633 2.633 2.633h23.696v-2.633h-23.696v-18.43zM29.246 5.468h-10.532l-2.633-2.633h-7.899c-1.448 0-2.62 1.185-2.62 2.633l-0.013 15.797c0 1.448 1.185 2.633 2.633 2.633h21.063c1.448 0 2.633-1.185 2.633-2.633v-13.165c0-1.448-1.185-2.633-2.633-2.633zM9.5 19.949l5.924-7.899 4.608 5.937 3.291-3.963 4.608 5.924h-18.43z"></path>
</symbol>
<symbol id="icon-Support-agent" viewBox="0 0 32 32">
<path d="M27.938 16.29c0-7.238-5.616-12.155-11.865-12.155-6.183 0-11.865 4.812-11.865 12.234-0.791 0.448-1.318 1.292-1.318 2.268v2.637c0 1.45 1.187 2.637 2.637 2.637h1.318v-8.042c0-5.102 4.126-9.228 9.228-9.228s9.228 4.126 9.228 9.228v9.36h-10.547v2.637h10.547c1.45 0 2.637-1.187 2.637-2.637v-1.608c0.778-0.409 1.318-1.213 1.318-2.162v-3.032c0-0.923-0.541-1.727-1.318-2.136z"></path>
<path d="M12.118 18.637c0.728 0 1.318-0.59 1.318-1.318s-0.59-1.318-1.318-1.318c-0.728 0-1.318 0.59-1.318 1.318s0.59 1.318 1.318 1.318z"></path>
<path d="M20.028 18.637c0.728 0 1.318-0.59 1.318-1.318s-0.59-1.318-1.318-1.318c-0.728 0-1.318 0.59-1.318 1.318s0.59 1.318 1.318 1.318z"></path>
<path d="M23.983 14.721c-0.633-3.757-3.902-6.631-7.844-6.631-3.995 0-8.292 3.309-7.95 8.503 3.256-1.332 5.708-4.232 6.407-7.765 1.727 3.467 5.273 5.853 9.387 5.893z"></path>
</symbol>
<symbol id="icon-play" viewBox="0 0 32 32">
<path fill="#fff" style="fill: var(--color1, #fff)" d="M15.768 2.937c-7.253 0-13.14 5.887-13.14 13.14s5.887 13.14 13.14 13.14c7.253 0 13.14-5.887 13.14-13.14s-5.887-13.14-13.14-13.14zM13.14 21.99v-11.826l7.884 5.913-7.884 5.913z"></path>
</symbol>
<symbol id="icon-Arrow" viewBox="0 0 31 32">
<path fill="#000" style="fill: var(--color1, #000)" opacity="0.2" d="M15.673 31.783c8.656 0 15.673-7.017 15.673-15.673s-7.017-15.673-15.673-15.673c-8.656 0-15.673 7.017-15.673 15.673s7.017 15.673 15.673 15.673z"></path>
<path fill="#000" style="fill: var(--color1, #000)" d="M12.676 14.045l2.998 2.991 2.998-2.991 0.921 0.921-3.918 3.918-3.918-3.918 0.921-0.921z"></path>
</symbol>
<symbol id="icon-Timelapse" viewBox="0 0 32 32">
<path  d="M21.427 10.347c-1.542-1.542-3.56-2.32-5.59-2.32v7.91l-5.59 5.59c3.085 3.085 8.095 3.085 11.193 0 3.085-3.085 3.085-8.095-0.013-11.18zM15.837 2.753c-7.277 0-13.184 5.906-13.184 13.184s5.906 13.184 13.184 13.184c7.277 0 13.184-5.906 13.184-13.184s-5.906-13.184-13.184-13.184zM15.837 26.483c-5.827 0-10.547-4.72-10.547-10.547s4.72-10.547 10.547-10.547c5.827 0 10.547 4.72 10.547 10.547s-4.72 10.547-10.547 10.547z"></path>
</symbol>
<symbol id="icon-ctrl" viewBox="0 0 32 32">
<path d="M23 14c-0.278 0-0.555-0.116-0.753-0.341l-6.247-7.14-6.247 7.14c-0.364 0.416-0.995 0.458-1.411 0.094s-0.458-0.995-0.094-1.411l7-8c0.19-0.217 0.464-0.341 0.753-0.341s0.563 0.125 0.753 0.341l7 8c0.364 0.416 0.322 1.047-0.094 1.411-0.19 0.166-0.424 0.247-0.658 0.247z"></path>
</symbol>
<symbol id="icon-Facebook" viewBox="0 0 19 32">
<path  d="M12.317 30.981v-13.828h4.875l0.73-5.389h-5.605v-3.441c0-1.56 0.455-2.624 2.805-2.624l2.997-0.001v-4.82c-0.518-0.066-2.298-0.212-4.368-0.212-4.322 0-7.28 2.511-7.28 7.124v3.974h-4.888v5.389h4.888v13.828l5.846 0z"></path>
</symbol>

<symbol id="icon-LinkedIn" viewBox="0 0 32 32">
<path  d="M1.431 5.541c0-0.972 0.341-1.774 1.024-2.406s1.57-0.948 2.663-0.948c1.073 0 1.941 0.311 2.604 0.933 0.683 0.642 1.024 1.478 1.024 2.508 0 0.933-0.332 1.711-0.995 2.333-0.683 0.642-1.58 0.962-2.692 0.962h-0.029c-1.073 0-1.941-0.321-2.604-0.962s-0.995-1.448-0.995-2.421zM1.811 31.059v-19.481h6.496v19.481h-6.496zM11.907 31.059h6.496v-10.878c0-0.681 0.078-1.206 0.234-1.575 0.273-0.661 0.688-1.22 1.244-1.677s1.253-0.685 2.092-0.685c2.185 0 3.277 1.468 3.277 4.404v10.412h6.496v-11.17c0-2.878-0.683-5.060-2.048-6.547s-3.17-2.231-5.414-2.231c-2.517 0-4.477 1.079-5.882 3.237v0.058h-0.029l0.029-0.058v-2.771h-6.496c0.039 0.622 0.058 2.557 0.058 5.804s-0.020 7.806-0.058 13.678z"></path>
</symbol>
<symbol id="icon-tik-tok" viewBox="0 0 32 32">
<path  d="M22.763 0h-5.393v21.797c0 2.597-2.074 4.73-4.655 4.73s-4.655-2.133-4.655-4.73c0-2.551 2.028-4.638 4.517-4.73v-5.472c-5.485 0.093-9.91 4.591-9.91 10.203 0 5.658 4.517 10.203 10.095 10.203s10.094-4.591 10.094-10.203v-11.177c2.028 1.484 4.517 2.365 7.145 2.412v-5.473c-4.056-0.139-7.237-3.478-7.237-7.559z"></path>
</symbol>
<symbol id="icon-YouTube" viewBox="0 0 32 32">
<path  d="M17.201 26.305l-6.19-0.116c-2.004-0.040-4.013 0.040-5.978-0.378-2.989-0.624-3.201-3.684-3.422-6.25-0.305-3.608-0.187-7.282 0.389-10.86 0.325-2.008 1.605-3.206 3.585-3.336 6.682-0.473 13.409-0.417 20.077-0.196 0.704 0.020 1.413 0.131 2.108 0.257 3.428 0.614 3.511 4.081 3.733 7 0.222 2.949 0.128 5.913-0.296 8.842-0.34 2.425-0.99 4.459-3.733 4.655-3.437 0.257-6.796 0.463-10.243 0.398 0-0.016-0.020-0.016-0.030-0.016zM13.562 20.165c2.59-1.52 5.131-3.014 7.707-4.524-2.595-1.52-5.131-3.014-7.707-4.524v9.048z"></path>
</symbol>

<symbol id="icon-checkmark" viewBox="0 0 32 32">
<path d="M27 4l-15 15-7-7-5 5 12 12 20-20z"></path>
</symbol>
<symbol id="icon-Videocam" viewBox="0 0 31 32">
<path d="M22.019 14.21v-4.533c0-0.712-0.583-1.295-1.295-1.295h-15.543c-0.712 0-1.295 0.583-1.295 1.295v12.952c0 0.712 0.583 1.295 1.295 1.295h15.543c0.712 0 1.295-0.583 1.295-1.295v-4.533l5.181 5.181v-14.248l-5.181 5.181z"></path>
</symbol>
<symbol id="icon-Vector-2" viewBox="0 0 20 32">
<path d="M19.76 28.24l-12.213-12.24 12.213-12.24-3.76-3.76-16 16 16 16 3.76-3.76z"></path>
</symbol>
<symbol id="icon-Vector" viewBox="0 0 20 32">
<path d="M0 3.76l12.213 12.24-12.213 12.24 3.76 3.76 16-16-16-16-3.76 3.76z"></path>
</symbol>
<symbol id="instagram" viewBox="0 0 32 32">
<path d="M16 2.881c4.275 0 4.781 0.019 6.462 0.094 1.563 0.069 2.406 0.331 2.969 0.55 0.744 0.288 1.281 0.638 1.837 1.194 0.563 0.563 0.906 1.094 1.2 1.838 0.219 0.563 0.481 1.412 0.55 2.969 0.075 1.688 0.094 2.194 0.094 6.463s-0.019 4.781-0.094 6.463c-0.069 1.563-0.331 2.406-0.55 2.969-0.288 0.744-0.637 1.281-1.194 1.837-0.563 0.563-1.094 0.906-1.837 1.2-0.563 0.219-1.413 0.481-2.969 0.55-1.688 0.075-2.194 0.094-6.463 0.094s-4.781-0.019-6.463-0.094c-1.563-0.069-2.406-0.331-2.969-0.55-0.744-0.288-1.281-0.637-1.838-1.194-0.563-0.563-0.906-1.094-1.2-1.837-0.219-0.563-0.481-1.413-0.55-2.969-0.075-1.688-0.094-2.194-0.094-6.463s0.019-4.781 0.094-6.463c0.069-1.563 0.331-2.406 0.55-2.969 0.288-0.744 0.638-1.281 1.194-1.838 0.563-0.563 1.094-0.906 1.838-1.2 0.563-0.219 1.412-0.481 2.969-0.55 1.681-0.075 2.188-0.094 6.463-0.094zM16 0c-4.344 0-4.887 0.019-6.594 0.094-1.7 0.075-2.869 0.35-3.881 0.744-1.056 0.412-1.95 0.956-2.837 1.85-0.894 0.888-1.438 1.781-1.85 2.831-0.394 1.019-0.669 2.181-0.744 3.881-0.075 1.713-0.094 2.256-0.094 6.6s0.019 4.887 0.094 6.594c0.075 1.7 0.35 2.869 0.744 3.881 0.413 1.056 0.956 1.95 1.85 2.837 0.887 0.887 1.781 1.438 2.831 1.844 1.019 0.394 2.181 0.669 3.881 0.744 1.706 0.075 2.25 0.094 6.594 0.094s4.888-0.019 6.594-0.094c1.7-0.075 2.869-0.35 3.881-0.744 1.050-0.406 1.944-0.956 2.831-1.844s1.438-1.781 1.844-2.831c0.394-1.019 0.669-2.181 0.744-3.881 0.075-1.706 0.094-2.25 0.094-6.594s-0.019-4.887-0.094-6.594c-0.075-1.7-0.35-2.869-0.744-3.881-0.394-1.063-0.938-1.956-1.831-2.844-0.887-0.887-1.781-1.438-2.831-1.844-1.019-0.394-2.181-0.669-3.881-0.744-1.712-0.081-2.256-0.1-6.6-0.1v0z"></path>
<path d="M16 7.781c-4.537 0-8.219 3.681-8.219 8.219s3.681 8.219 8.219 8.219 8.219-3.681 8.219-8.219c0-4.537-3.681-8.219-8.219-8.219zM16 21.331c-2.944 0-5.331-2.387-5.331-5.331s2.387-5.331 5.331-5.331c2.944 0 5.331 2.387 5.331 5.331s-2.387 5.331-5.331 5.331z"></path>
<path d="M26.462 7.456c0 1.060-0.859 1.919-1.919 1.919s-1.919-0.859-1.919-1.919c0-1.060 0.859-1.919 1.919-1.919s1.919 0.859 1.919 1.919z"></path>
</symbol>
<symbol id="icon-menu" viewBox="0 0 47 32">
<path d="M0 0h24.471v5.647h-24.471v-5.647z"></path>
<path d="M0 26.353h33.882v5.647h-33.882v-5.647z"></path>
<path d="M0 13.176h47.059v5.647h-47.059v-5.647z"></path>
</symbol>
<symbol id="icon-Close" viewBox="0 0 32 32">
<path d="M25.333 8.546l-1.88-1.88-7.453 7.453-7.453-7.453-1.88 1.88 7.453 7.453-7.453 7.453 1.88 1.88 7.453-7.453 7.453 7.453 1.88-1.88-7.453-7.453 7.453-7.453z"></path>
</symbol>
<symbol id="icon-home" viewBox="0 0 32 32">
<path fill="#b1b1b1" style="fill: var(--color1, #b1b1b1)" d="M31.152 14.273c-0.001-0.001-0.001-0.002-0.002-0.002l-12.797-12.797c-0.546-0.546-1.271-0.846-2.042-0.846s-1.497 0.3-2.042 0.846l-12.791 12.791c-0.004 0.004-0.009 0.009-0.013 0.013-1.12 1.127-1.118 2.955 0.006 4.078 0.513 0.514 1.192 0.811 1.917 0.842 0.029 0.003 0.059 0.004 0.089 0.004h0.51v9.418c0 1.864 1.516 3.38 3.38 3.38h5.007c0.507 0 0.919-0.411 0.919-0.919v-7.384c0-0.85 0.692-1.542 1.542-1.542h2.953c0.85 0 1.542 0.692 1.542 1.542v7.384c0 0.508 0.411 0.919 0.919 0.919h5.007c1.864 0 3.38-1.516 3.38-3.38v-9.418h0.473c0.771 0 1.496-0.3 2.042-0.846 1.125-1.126 1.125-2.957 0.001-4.083z"></path>
</symbol>
<symbol id="icon-settings" viewBox="0 0 32 32">
<path fill="#b1b1b1" style="fill: var(--color1, #b1b1b1)" d="M29.112 12.128h-0.666c-0.216-0.677-0.489-1.335-0.816-1.967l0.472-0.472c1.144-1.143 1.113-2.973 0-4.085l-1.392-1.392c-1.111-1.112-2.942-1.145-4.085-0l-0.472 0.472c-0.632-0.327-1.29-0.6-1.967-0.816v-0.666c0-1.592-1.296-2.888-2.888-2.888h-1.969c-1.592 0-2.888 1.296-2.888 2.888v0.666c-0.677 0.216-1.335 0.489-1.967 0.816l-0.472-0.472c-1.14-1.142-2.972-1.115-4.085-0l-1.392 1.392c-1.112 1.111-1.144 2.942-0 4.085l0.472 0.472c-0.327 0.632-0.6 1.29-0.816 1.967h-0.666c-1.592 0-2.888 1.296-2.888 2.888v1.969c0 1.592 1.296 2.888 2.888 2.888h0.666c0.216 0.677 0.489 1.335 0.816 1.967l-0.472 0.472c-1.144 1.142-1.113 2.973-0 4.085l1.392 1.392c1.111 1.112 2.942 1.144 4.085 0l0.472-0.472c0.632 0.327 1.29 0.6 1.967 0.816v0.666c0 1.592 1.296 2.888 2.888 2.888h1.969c1.592 0 2.888-1.296 2.888-2.888v-0.666c0.677-0.216 1.335-0.489 1.967-0.816l0.472 0.472c1.14 1.142 2.972 1.115 4.085 0l1.392-1.392c1.112-1.111 1.144-2.942 0-4.085l-0.472-0.472c0.327-0.632 0.6-1.29 0.816-1.967h0.666c1.592 0 2.888-1.296 2.888-2.888v-1.969c-0-1.592-1.296-2.888-2.888-2.888zM16.314 22.826c-3.764 0-6.826-3.062-6.826-6.826s3.062-6.826 6.826-6.826c3.764 0 6.826 3.062 6.826 6.826s-3.062 6.826-6.826 6.826z"></path>
</symbol>
<symbol id="icon-Play" viewBox="0 0 32 32">
<path fill="#fff" style="fill: var(--color1, #fff)" d="M15.964 31.927c8.816 0 15.963-7.147 15.963-15.963s-7.147-15.964-15.963-15.964c-8.816 0-15.964 7.147-15.964 15.964s7.147 15.963 15.964 15.963z"></path>
<path fill="#001a49" style="fill: var(--color2, #001a49)" d="M20.487 15.963l-6.385 5.055v-10.11l6.385 5.055z"></path>
</symbol>
<symbol id="icon-Location" viewBox="0 0 32 32">
<path  d="M16 2.667c-5.16 0-9.333 4.173-9.333 9.333 0 7 9.333 17.333 9.333 17.333s9.333-10.333 9.333-17.333c0-5.16-4.173-9.333-9.333-9.333zM16 15.333c-1.84 0-3.333-1.493-3.333-3.333s1.493-3.333 3.333-3.333c1.84 0 3.333 1.493 3.333 3.333s-1.493 3.333-3.333 3.333z"></path>
</symbol>
<symbol id="icon-Mail" viewBox="0 0 32 32">
<path  d="M26.667 5.333h-21.333c-1.467 0-2.653 1.2-2.653 2.667l-0.013 16c0 1.467 1.2 2.667 2.667 2.667h21.333c1.467 0 2.667-1.2 2.667-2.667v-16c0-1.467-1.2-2.667-2.667-2.667zM26.667 24h-21.333v-13.333l10.667 6.667 10.667-6.667v13.333zM16 14.667l-10.667-6.667h21.333l-10.667 6.667z"></path>
</symbol>
<symbol id="icon-filter" viewBox="0 0 32 32">
<path stroke-linejoin="round" stroke-linecap="round" stroke-miterlimit="4" stroke-width="3.1111" d="M29.262 4.137h-25.926l10.37 12.263v8.478l5.185 2.593v-11.070l10.37-12.263z"></path>
</symbol>
<symbol id="icon-arrow_back" viewBox="0 0 32 32">
<path d="M26.667 14.667h-16.227l7.453-7.453-1.893-1.88-10.667 10.667 10.667 10.667 1.88-1.88-7.44-7.453h16.227v-2.667z"></path>
</symbol>
<symbol id="icon-row-down" viewBox="0 0 32 32">
<path d="M15.802 26.503c-0.367 0-0.675-0.124-0.923-0.373s-0.373-0.556-0.372-0.922v-14.471l-6.313 6.313c-0.259 0.259-0.567 0.388-0.923 0.388s-0.664-0.13-0.922-0.388c-0.259-0.259-0.388-0.561-0.388-0.906s0.129-0.647 0.388-0.906l8.547-8.546c0.13-0.13 0.27-0.221 0.421-0.275s0.313-0.081 0.486-0.082c0.173 0 0.34 0.027 0.502 0.082s0.297 0.146 0.404 0.275l8.547 8.546c0.259 0.259 0.388 0.561 0.388 0.906s-0.13 0.647-0.388 0.906c-0.259 0.259-0.567 0.388-0.923 0.388s-0.664-0.13-0.922-0.388l-6.313-6.313v14.471c0 0.367-0.124 0.675-0.373 0.923s-0.556 0.372-0.922 0.372z"></path>
</symbol>
<symbol id="icon-row-up" viewBox="0 0 32 32">
<path d="M15.802 26.503c-0.367 0-0.675-0.124-0.923-0.373s-0.373-0.556-0.372-0.922v-14.471l-6.313 6.313c-0.259 0.259-0.567 0.388-0.923 0.388s-0.664-0.13-0.922-0.388c-0.259-0.259-0.388-0.561-0.388-0.906s0.129-0.647 0.388-0.906l8.547-8.546c0.13-0.13 0.27-0.221 0.421-0.275s0.313-0.081 0.486-0.082c0.173 0 0.34 0.027 0.502 0.082s0.297 0.146 0.404 0.275l8.547 8.546c0.259 0.259 0.388 0.561 0.388 0.906s-0.13 0.647-0.388 0.906c-0.259 0.259-0.567 0.388-0.923 0.388s-0.664-0.13-0.922-0.388l-6.313-6.313v14.471c0 0.367-0.124 0.675-0.373 0.923s-0.556 0.372-0.922 0.372z"></path>
</symbol>
<symbol id="icon-atach" viewBox="0 0 17 32">
<path  d="M13.434 7.071v16.263c0 3.125-2.531 5.657-5.657 5.657s-5.657-2.531-5.657-5.657v-17.677c0-1.952 1.584-3.535 3.535-3.535s3.535 1.584 3.535 3.535v14.848c0 0.778-0.636 1.414-1.414 1.414s-1.414-0.636-1.414-1.414v-13.434h-2.121v13.434c0 1.951 1.584 3.535 3.535 3.535s3.535-1.584 3.535-3.535v-14.848c0-3.125-2.531-5.657-5.657-5.657s-5.657 2.531-5.657 5.657v17.677c0 4.299 3.479 7.778 7.778 7.778s7.778-3.479 7.778-7.778v-16.263h-2.121z"></path>
</symbol>
<symbol id="icon-eye" viewBox="0 0 32 32">
<path d="M16 6c-6.979 0-13.028 4.064-16 10 2.972 5.936 9.021 10 16 10s13.027-4.064 16-10c-2.972-5.936-9.021-10-16-10zM23.889 11.303c1.88 1.199 3.473 2.805 4.67 4.697-1.197 1.891-2.79 3.498-4.67 4.697-2.362 1.507-5.090 2.303-7.889 2.303s-5.527-0.796-7.889-2.303c-1.88-1.199-3.473-2.805-4.67-4.697 1.197-1.891 2.79-3.498 4.67-4.697 0.122-0.078 0.246-0.154 0.371-0.228-0.311 0.854-0.482 1.776-0.482 2.737 0 4.418 3.582 8 8 8s8-3.582 8-8c0-0.962-0.17-1.883-0.482-2.737 0.124 0.074 0.248 0.15 0.371 0.228v0zM16 13c0 1.657-1.343 3-3 3s-3-1.343-3-3 1.343-3 3-3 3 1.343 3 3z"></path>
</symbol>
<symbol id="icon-eye-blocked" viewBox="0 0 32 32">
<path d="M29.561 0.439c-0.586-0.586-1.535-0.586-2.121 0l-6.318 6.318c-1.623-0.492-3.342-0.757-5.122-0.757-6.979 0-13.028 4.064-16 10 1.285 2.566 3.145 4.782 5.407 6.472l-4.968 4.968c-0.586 0.586-0.586 1.535 0 2.121 0.293 0.293 0.677 0.439 1.061 0.439s0.768-0.146 1.061-0.439l27-27c0.586-0.586 0.586-1.536 0-2.121zM13 10c1.32 0 2.44 0.853 2.841 2.037l-3.804 3.804c-1.184-0.401-2.037-1.521-2.037-2.841 0-1.657 1.343-3 3-3zM3.441 16c1.197-1.891 2.79-3.498 4.67-4.697 0.122-0.078 0.246-0.154 0.371-0.228-0.311 0.854-0.482 1.776-0.482 2.737 0 1.715 0.54 3.304 1.459 4.607l-1.904 1.904c-1.639-1.151-3.038-2.621-4.114-4.323z"></path>
<path d="M24 13.813c0-0.849-0.133-1.667-0.378-2.434l-10.056 10.056c0.768 0.245 1.586 0.378 2.435 0.378 4.418 0 8-3.582 8-8z"></path>
<path d="M25.938 9.062l-2.168 2.168c0.040 0.025 0.079 0.049 0.118 0.074 1.88 1.199 3.473 2.805 4.67 4.697-1.197 1.891-2.79 3.498-4.67 4.697-2.362 1.507-5.090 2.303-7.889 2.303-1.208 0-2.403-0.149-3.561-0.439l-2.403 2.403c1.866 0.671 3.873 1.036 5.964 1.036 6.978 0 13.027-4.064 16-10-1.407-2.81-3.504-5.2-6.062-6.938z"></path>
</symbol>
<symbol id="icon-plus" viewBox="0 0 32 32">
<path d="M32 18.286h-13.714v13.714h-4.571v-13.714h-13.714v-4.571h13.714v-13.714h4.571v13.714h13.714v4.571z"></path>
</symbol>
<symbol id="icon-upload3" viewBox="0 0 32 32">
<path d="M15 22h-15v8h30v-8h-15zM28 26h-4v-2h4v2zM7 10l8-8 8 8h-5v10h-6v-10z"></path>
</symbol>
<symbol id="icon-home3" viewBox="0 0 32 32">
<path d="M32 19l-6-6v-9h-4v5l-6-6-16 16v1h4v10h10v-6h4v6h10v-10h4z"></path>
</symbol>
<symbol id="icon-folder-open" viewBox="0 0 32 32">
<path d="M26 30l6-16h-26l-6 16zM4 12l-4 18v-26h9l4 4h13v4z"></path>
</symbol>
<symbol id="icon-coin-dollar" viewBox="0 0 32 32">
<path d="M15 2c-8.284 0-15 6.716-15 15s6.716 15 15 15c8.284 0 15-6.716 15-15s-6.716-15-15-15zM15 29c-6.627 0-12-5.373-12-12s5.373-12 12-12c6.627 0 12 5.373 12 12s-5.373 12-12 12zM16 16v-4h4v-2h-4v-2h-2v2h-4v8h4v4h-4v2h4v2h2v-2h4l-0-8h-4zM14 16h-2v-4h2v4zM18 22h-2v-4h2v4z"></path>
</symbol>
<symbol id="icon-search" viewBox="0 0 32 32">
<path fill="none" stroke="#5f5f5f" style="stroke: var(--color1, #5f5f5f)" stroke-linejoin="round" stroke-linecap="round" stroke-miterlimit="4" stroke-width="1.9519" d="M14.585 24.995c5.749 0 10.41-4.661 10.41-10.41s-4.661-10.41-10.41-10.41c-5.749 0-10.41 4.661-10.41 10.41s4.661 10.41 10.41 10.41z"></path>
<path fill="none" stroke="#5f5f5f" style="stroke: var(--color1, #5f5f5f)" stroke-linejoin="round" stroke-linecap="round" stroke-miterlimit="4" stroke-width="1.9519" d="M27.598 27.598l-5.66-5.66"></path>
</symbol>
 <symbol id="icon-embed" viewBox="0 0 32 32">
<path d="M18 23l3 3 10-10-10-10-3 3 7 7z"></path>
<path d="M14 9l-3-3-10 10 10 10 3-3-7-7z"></path>

</symbol>
<symbol id="icon-image" viewBox="0 0 24 32">
<path fill="#4353ff" style="fill: var(--color3, #4353ff)" d="M14 8v-8h-11c-1.657 0-3 1.343-3 3v26c0 1.656 1.343 3 3 3h18c1.657 0 3-1.343 3-3v-19h-7.944c-1.163 0-2.056-0.894-2.056-2zM6 14c1.104 0 2 0.896 2 2s-0.894 2-2 2c-1.106 0-2-0.894-2-2s0.896-2 2-2zM19.881 27.469c-0.175 0.331-0.512 0.531-0.881 0.531h-14c-0.369 0-0.707-0.203-0.882-0.528s-0.155-0.72 0.050-1.026l3.333-5c0.13-0.277 0.443-0.446 0.83-0.446s0.647 0.167 0.832 0.445l0.837 1.255 2.834-4.252c0.184-0.279 0.497-0.448 0.834-0.448s0.647 0.167 0.832 0.445l5.333 8c0.204 0.305 0.223 0.698 0.047 1.023zM16 0v8h8l-8-8z"></path>
</symbol>
<symbol id="icon-file" viewBox="0 0 28 32">
<path fill="none" stroke="#5a68ff" style="stroke: var(--color2, #5a68ff)" stroke-linejoin="round" stroke-linecap="round" stroke-miterlimit="4" stroke-width="2.6667" d="M16 2.667h-10.667c-0.707 0-1.386 0.281-1.886 0.781s-0.781 1.178-0.781 1.886v21.333c0 0.707 0.281 1.385 0.781 1.886s1.178 0.781 1.886 0.781h16c0.707 0 1.385-0.281 1.886-0.781s0.781-1.178 0.781-1.886v-16l-8-8z"></path>
<path fill="none" stroke="#5a68ff" style="stroke: var(--color2, #5a68ff)" stroke-linejoin="round" stroke-linecap="round" stroke-miterlimit="4" stroke-width="2.6667" d="M16 2.667v8h8"></path>
<path fill="none" stroke="#5a68ff" style="stroke: var(--color2, #5a68ff)" stroke-linejoin="round" stroke-linecap="round" stroke-miterlimit="4" stroke-width="2.6667" d="M18.667 17.333h-10.667"></path>
<path fill="none" stroke="#5a68ff" style="stroke: var(--color2, #5a68ff)" stroke-linejoin="round" stroke-linecap="round" stroke-miterlimit="4" stroke-width="2.6667" d="M18.667 22.667h-10.667"></path>
<path fill="none" stroke="#5a68ff" style="stroke: var(--color2, #5a68ff)" stroke-linejoin="round" stroke-linecap="round" stroke-miterlimit="4" stroke-width="2.6667" d="M10.667 12h-2.667"></path>
</symbol>
<symbol id="icon-sound" viewBox="0 0 28 32">
<path fill="#5a68ff" style="fill: var(--color2, #5a68ff)" d="M27.166 6.786c0.333 0.333 0.619 0.786 0.857 1.357s0.357 1.095 0.357 1.571v20.571c0 0.476-0.167 0.881-0.5 1.214s-0.738 0.5-1.214 0.5h-24c-0.476 0-0.881-0.167-1.214-0.5s-0.5-0.738-0.5-1.214v-28.571c0-0.476 0.167-0.881 0.5-1.214s0.738-0.5 1.214-0.5h16c0.476 0 1 0.119 1.571 0.357s1.024 0.524 1.357 0.857l5.571 5.571zM19.238 2.429v6.714h6.714c-0.119-0.345-0.25-0.589-0.393-0.732l-5.589-5.589c-0.143-0.143-0.387-0.274-0.732-0.393zM26.095 29.714v-18.286h-7.429c-0.476 0-0.881-0.167-1.214-0.5s-0.5-0.738-0.5-1.214v-7.429h-13.714v27.429h22.857zM12.023 15.179c0.238 0.095 0.357 0.274 0.357 0.536v9.714c0 0.262-0.119 0.441-0.357 0.536-0.095 0.024-0.167 0.036-0.214 0.036-0.143 0-0.28-0.054-0.411-0.161l-2.964-2.982h-2.339c-0.167 0-0.304-0.054-0.411-0.161s-0.161-0.244-0.161-0.411v-3.429c0-0.167 0.054-0.304 0.161-0.411s0.244-0.161 0.411-0.161h2.339l2.964-2.982c0.19-0.179 0.399-0.22 0.625-0.125zM19.47 27.482c0.369 0 0.667-0.143 0.893-0.429 1.536-1.893 2.304-4.054 2.304-6.482s-0.768-4.589-2.304-6.482c-0.191-0.25-0.446-0.393-0.768-0.429s-0.601 0.048-0.839 0.25c-0.25 0.202-0.39 0.461-0.42 0.777s0.057 0.598 0.259 0.848c1.191 1.464 1.786 3.143 1.786 5.036s-0.595 3.571-1.786 5.036c-0.202 0.25-0.289 0.533-0.259 0.848s0.17 0.569 0.42 0.759c0.214 0.179 0.452 0.268 0.714 0.268zM15.702 24.839c0.321 0 0.601-0.119 0.839-0.357 1.036-1.107 1.554-2.411 1.554-3.911s-0.518-2.804-1.554-3.911c-0.214-0.226-0.482-0.345-0.803-0.357s-0.595 0.089-0.821 0.304c-0.226 0.214-0.345 0.479-0.357 0.795s0.095 0.592 0.321 0.83c0.619 0.679 0.929 1.458 0.929 2.339s-0.309 1.661-0.929 2.339c-0.226 0.238-0.333 0.515-0.321 0.83s0.131 0.58 0.357 0.795c0.238 0.202 0.5 0.304 0.786 0.304z"></path>
</symbol>
<symbol id="icon-video" viewBox="0 0 28 32">
<path fill="#4353ff" style="fill: var(--color3, #4353ff)" d="M26.214 6.786c0.333 0.333 0.619 0.786 0.857 1.357s0.357 1.095 0.357 1.571v20.571c0 0.476-0.167 0.881-0.5 1.214s-0.738 0.5-1.214 0.5h-24c-0.476 0-0.881-0.167-1.214-0.5s-0.5-0.738-0.5-1.214v-28.571c0-0.476 0.167-0.881 0.5-1.214s0.738-0.5 1.214-0.5h16c0.476 0 1 0.119 1.571 0.357s1.024 0.524 1.357 0.857l5.571 5.571zM18.286 2.429v6.714h6.714c-0.119-0.345-0.25-0.589-0.393-0.732l-5.589-5.589c-0.143-0.143-0.387-0.274-0.732-0.393zM25.143 29.714v-18.286h-7.429c-0.476 0-0.881-0.167-1.214-0.5s-0.5-0.738-0.5-1.214v-7.429h-13.714v27.429h22.857zM13.714 13.714c0.619 0 1.155 0.226 1.607 0.679s0.679 0.988 0.679 1.607v6.857c0 0.619-0.226 1.155-0.679 1.607s-0.988 0.679-1.607 0.679h-6.857c-0.619 0-1.155-0.226-1.607-0.679s-0.679-0.988-0.679-1.607v-6.857c0-0.619 0.226-1.155 0.679-1.607s0.988-0.679 1.607-0.679h6.857zM22.5 13.75c0.238 0.095 0.357 0.274 0.357 0.536v10.286c0 0.262-0.119 0.44-0.357 0.536-0.095 0.024-0.167 0.036-0.214 0.036-0.167 0-0.304-0.053-0.411-0.161l-4.732-4.75v-1.607l4.732-4.75c0.107-0.107 0.244-0.161 0.411-0.161 0.048 0 0.119 0.012 0.214 0.036z"></path>
</symbol>
<symbol id="icon-rav" viewBox="0 0 28 32">
<path fill="#4353ff" style="fill: var(--color3, #4353ff)" d="M24.489 32h-20.978c-0.761-0.28-0.994-0.856-0.983-1.638 0.026-1.874 0.009-3.749 0.009-5.623 0-0.119 0-0.239 0-0.373-0.257 0-0.463 0.004-0.668 0-1.103-0.026-1.85-0.748-1.856-1.867-0.016-3.062-0.016-6.124 0-9.185 0.006-1.131 0.767-1.854 1.886-1.867 0.203-0.002 0.405 0 0.637 0v-0.401c0-3.186 0-6.374 0-9.56 0-0.99 0.482-1.478 1.458-1.478 4.843-0.002 9.686 0.001 14.529-0.008 0.363 0 0.617 0.126 0.851 0.399 1.911 2.222 3.827 4.44 5.752 6.65 0.241 0.278 0.345 0.57 0.342 0.933-0.011 1.041-0.004 2.083-0.004 3.124 0 0.109 0 0.217 0 0.339 0.247 0 0.442-0.002 0.637 0 1.119 0.013 1.88 0.736 1.887 1.867 0.017 3.062 0.016 6.124 0 9.185-0.006 1.131-0.763 1.85-1.887 1.867-0.203 0.003-0.405 0-0.637 0 0 0.159 0 0.281 0 0.403 0 1.864-0.017 3.728 0.009 5.592 0.011 0.783-0.223 1.358-0.983 1.638v0.002zM24.211 8.311c-0.146 0-0.258 0-0.371 0-1.624 0-3.249 0-4.874 0-0.624 0-0.836-0.215-0.836-0.844-0.001-1.947 0-3.895 0-5.842 0-0.112 0-0.223 0-0.347h-14.331v10.146h20.412v-3.113l-0.001-0.001zM3.793 30.391c0.117 0.006 0.216 0.015 0.317 0.015 6.599 0 13.198-0.001 19.797 0.006 0.258 0 0.328-0.077 0.327-0.335-0.010-1.801-0.005-3.602-0.007-5.403 0-0.091-0.010-0.183-0.017-0.285h-20.417v6.002zM17.847 22.003c0.64 0 1.266 0.007 1.892-0.010 0.066-0.001 0.165-0.131 0.185-0.217 0.275-1.227 0.545-2.455 0.804-3.686 0.145-0.689 0.267-1.383 0.415-2.149 0.036 0.123 0.055 0.171 0.063 0.22 0.332 1.862 0.668 3.724 0.989 5.588 0.037 0.22 0.128 0.262 0.322 0.258 0.483-0.012 0.967-0.015 1.45 0.001 0.226 0.008 0.313-0.063 0.371-0.291 0.6-2.398 1.215-4.793 1.825-7.189 0.069-0.269 0.135-0.537 0.208-0.827h-1.902c-0.379 2.047-0.759 4.097-1.133 6.115-0.36-2.013-0.727-4.064-1.094-6.113h-2.004c-0.408 2.060-0.815 4.112-1.239 6.251-0.378-2.141-0.741-4.199-1.102-6.245h-1.99c0.65 2.774 1.294 5.523 1.944 8.293h-0.002zM8.073 22.002c-0.195-0.726-0.379-1.427-0.574-2.124-0.199-0.709-0.408-1.416-1.164-1.791 0.123-0.063 0.205-0.102 0.286-0.147 1.354-0.745 1.587-2.577 0.453-3.616-0.411-0.376-0.924-0.521-1.461-0.602-1.233-0.186-2.456-0.059-3.683 0.072v8.188h1.828v-3.235c0.257 0 0.48-0.005 0.704 0.001 0.469 0.014 0.799 0.242 0.976 0.681 0.069 0.172 0.12 0.353 0.17 0.533 0.168 0.6 0.324 1.203 0.504 1.799 0.029 0.095 0.148 0.227 0.229 0.229 0.572 0.020 1.146 0.011 1.731 0.011h-0.001zM16.114 21.995c-0.012-0.077-0.015-0.129-0.030-0.177-0.808-2.639-1.619-5.277-2.422-7.917-0.054-0.177-0.138-0.217-0.306-0.215-0.627 0.009-1.254 0.018-1.88-0.004-0.254-0.009-0.352 0.077-0.423 0.316-0.761 2.556-1.533 5.109-2.301 7.662-0.032 0.105-0.053 0.212-0.087 0.344 0.598 0 1.162 0.008 1.726-0.009 0.081-0.002 0.203-0.118 0.229-0.205 0.169-0.556 0.326-1.116 0.466-1.68 0.047-0.19 0.13-0.245 0.316-0.241 0.616 0.011 1.233 0.012 1.849 0 0.2-0.004 0.282 0.059 0.337 0.259 0.171 0.627 0.368 1.247 0.555 1.869l1.971-0.001z"></path>
<path fill="#4353ff" style="fill: var(--color3, #4353ff)" d="M3.762 17.449v-2.422c0.466 0.023 0.926 0 1.37 0.080 0.51 0.092 0.763 0.447 0.809 0.966 0.045 0.511-0.169 0.974-0.645 1.122-0.478 0.147-0.994 0.171-1.534 0.256v-0.001z"></path>
<path fill="#4353ff" style="fill: var(--color3, #4353ff)" d="M12.306 15.119c0.31 1.128 0.608 2.212 0.913 3.321h-1.771c0.286-1.103 0.566-2.19 0.858-3.321z"></path>
</symbol>
<symbol id="icon-Ellipsis" viewBox="0 0 9 32">
<path d="M7.721 27.565c0 1.906-1.545 3.451-3.451 3.451s-3.451-1.545-3.451-3.451c0-1.906 1.545-3.451 3.451-3.451s3.451 1.545 3.451 3.451z"></path>
<path d="M7.721 16.061c0 1.906-1.545 3.451-3.451 3.451s-3.451-1.545-3.451-3.451c0-1.906 1.545-3.451 3.451-3.451s3.451 1.545 3.451 3.451z"></path>
<path d="M7.721 4.556c0 1.906-1.545 3.451-3.451 3.451s-3.451-1.545-3.451-3.451c0-1.906 1.545-3.451 3.451-3.451s3.451 1.545 3.451 3.451z"></path>
</symbol>
<symbol id="icon-done-upload" viewBox="0 0 32 32">
<path fill="#6dc580" style="fill: var(--color1, #6dc580)" d="M16 0c8.837 0 16 7.163 16 16s-7.163 16-16 16c-8.837 0-16-7.163-16-16s7.163-16 16-16z"></path>
<path fill="#fff" style="fill: var(--color2, #fff)" d="M13.548 19.432l-3.432-3.432-1.144 1.144 4.576 4.576 9.806-9.806-1.144-1.144-8.662 8.662z"></path>
</symbol>
<symbol id="icon-noun_project_928" viewBox="0 0 32 32">
<path d="M29.812 0.023c-10.72-0.356-19.501 3.598-19.501 3.598l-0.006 20.067c-1.092-0.433-2.419-0.536-3.767-0.208-2.907 0.706-4.81 3.142-4.251 5.442s3.368 3.592 6.274 2.886c2.74-0.666 4.588-2.87 4.322-5.047v-14.994s6.209-2.171 14.263-2.715v11.152c-1.080-0.413-2.382-0.507-3.705-0.186-2.907 0.706-4.81 3.142-4.251 5.442s3.367 3.592 6.274 2.886c2.538-0.617 4.311-2.553 4.348-4.564l0.001 0.001v-23.76z"></path>
</symbol>
<symbol id="icon-App-registration" viewBox="0 0 32 32">
<path fill="#fff" style="fill: var(--color1, #fff)" d="M18.499 5.598h-5.204v5.204h5.204v-5.204z"></path>
<path fill="#fff" style="fill: var(--color1, #fff)" d="M10.694 21.21h-5.204v5.204h5.204v-5.204z"></path>
<path fill="#fff" style="fill: var(--color1, #fff)" d="M10.694 13.404h-5.204v5.204h5.204v-5.204z"></path>
<path fill="#fff" style="fill: var(--color1, #fff)" d="M10.694 5.598h-5.204v5.204h5.204v-5.204z"></path>
<path fill="#fff" style="fill: var(--color1, #fff)" d="M18.499 16.552v-3.148h-5.204v5.204h3.148l2.056-2.055z"></path>
<path fill="#fff" style="fill: var(--color1, #fff)" d="M27.45 15.082l-1.522-1.522c-0.208-0.208-0.546-0.208-0.755 0l-1.145 1.145 2.277 2.277 1.145-1.145c0.208-0.208 0.208-0.546 0-0.755z"></path>
<path fill="#fff" style="fill: var(--color1, #fff)" d="M14.597 24.137v2.277h2.277l8.677-8.677-2.277-2.277-8.677 8.677z"></path>
<path fill="#fff" style="fill: var(--color1, #fff)" d="M26.305 5.598h-5.204v5.204h5.204v-5.204z"></path>
</symbol>
<symbol id="icon-Signpost" viewBox="0 0 32 32">
<path fill="#fff" style="fill: var(--color1, #fff)" d="M17.031 13.398h6.505l3.903-3.903-3.903-3.903h-6.505v-2.602h-2.602v2.602h-9.107v7.806h9.107v2.602h-6.505l-3.903 3.903 3.903 3.903h6.505v5.204h2.602v-5.204h9.107v-7.806h-9.107v-2.602z"></path>
</symbol>
<symbol id="icon-spiral" viewBox="0 0 32 32">
<path fill="#fff" style="fill: var(--color1, #fff)" d="M16.056 31.604c-2.16 0-4.189-0.41-6.089-1.23-1.899-0.819-3.552-1.931-4.957-3.336s-2.517-3.057-3.336-4.957c-0.82-1.899-1.23-3.929-1.23-6.089s0.41-4.189 1.23-6.088c0.819-1.899 1.931-3.552 3.336-4.957s3.057-2.518 4.957-3.338c1.899-0.819 3.929-1.229 6.089-1.229h0.39c0.338 0 0.618 0.11 0.84 0.331 0.221 0.222 0.331 0.502 0.331 0.84v11.748c0.468 0.286 0.846 0.657 1.132 1.112 0.286 0.456 0.429 0.983 0.429 1.581 0 0.859-0.305 1.593-0.916 2.204-0.612 0.612-1.347 0.918-2.206 0.918s-1.593-0.306-2.204-0.918c-0.612-0.611-0.918-1.346-0.918-2.204 0-0.598 0.143-1.132 0.429-1.6s0.664-0.833 1.132-1.093v-3.357c-1.353 0.364-2.472 1.099-3.357 2.204-0.885 1.106-1.327 2.388-1.327 3.845 0 1.717 0.611 3.187 1.834 4.41s2.693 1.834 4.41 1.834 3.187-0.611 4.41-1.834c1.223-1.223 1.834-2.693 1.834-4.41 0-0.598-0.084-1.191-0.253-1.777-0.17-0.585-0.424-1.138-0.762-1.658-0.234-0.364-0.331-0.722-0.292-1.074 0.039-0.351 0.188-0.656 0.448-0.916 0.312-0.312 0.709-0.468 1.19-0.468 0.482 0 0.866 0.208 1.152 0.624 0.572 0.833 0.989 1.697 1.249 2.595 0.26 0.898 0.39 1.79 0.39 2.674 0 2.602-0.911 4.814-2.732 6.635s-4.033 2.732-6.635 2.732c-2.602 0-4.814-0.911-6.635-2.732s-2.732-4.033-2.732-6.635c0-2.342 0.742-4.377 2.225-6.107 1.483-1.731 3.344-2.778 5.581-3.143v-3.161c-3.096 0.39-5.691 1.756-7.785 4.098-2.095 2.342-3.143 5.113-3.143 8.313 0 3.487 1.21 6.44 3.63 8.86s5.373 3.63 8.86 3.63c3.487 0 6.44-1.21 8.86-3.63s3.63-5.373 3.63-8.86c0-1.535-0.221-2.914-0.663-4.137s-1.067-2.355-1.873-3.396c-0.286-0.364-0.423-0.755-0.409-1.171 0.012-0.416 0.175-0.781 0.487-1.093s0.683-0.468 1.113-0.468c0.429 0 0.773 0.169 1.034 0.507 1.093 1.327 1.938 2.797 2.537 4.41s0.898 3.396 0.898 5.347c0 2.16-0.41 4.189-1.23 6.089s-1.931 3.552-3.336 4.957c-1.405 1.405-3.057 2.517-4.957 3.336-1.899 0.82-3.929 1.23-6.088 1.23z"></path>
</symbol>
<symbol id="icon-icons8-google-drive" viewBox="0 0 32 32">
<path fill="#ffc107" style="fill: var(--color3, #ffc107)" d="M11.333 4h9.333l9.333 16h-9.333z"></path>
<path fill="#1976d2" style="fill: var(--color4, #1976d2)" d="M6.583 28l4.709-8h18.708l-4.667 8z"></path>
<path fill="#4caf50" style="fill: var(--color5, #4caf50)" d="M2 20.083l4.583 7.917 9.417-16-4.667-8z"></path>
</symbol>
<symbol id="icon-icons8-dropbox" viewBox="0 0 32 32">
<path fill="#1e88e5" style="fill: var(--color2, #1e88e5)" d="M28 9.317l-7.082-4.481-4.918 4.039 7.351 4.279zM4 17.098l7.289 4.272 4.711-3.615-6.981-4.443zM11.289 4.837l-7.289 4.697 5.019 3.779 6.981-4.437zM16 17.755l4.806 3.615 7.194-4.272-4.649-3.943z"></path>
<path fill="#1e88e5" style="fill: var(--color2, #1e88e5)" d="M21.463 22.519l-0.765 0.455-4.698-3.533-4.606 3.535-2.727-1.599v1.781l7.325 4.841 7.341-4.804v-1.787z"></path>
</symbol>
<symbol id="icon-icons8-dynamic-links" viewBox="0 0 32 32">
<path fill="#ff8a65" style="fill: var(--color2, #ff8a65)" d="M29.333 16c0 7.364-5.97 13.333-13.333 13.333s-13.333-5.97-13.333-13.333c0-7.364 5.97-13.333 13.333-13.333s13.333 5.97 13.333 13.333z"></path>
<path fill="#fff" style="fill: var(--color1, #fff)" d="M13.171 17.885l4.714-4.714 0.943 0.943-4.714 4.714-0.943-0.943z"></path>
<path fill="#fff" style="fill: var(--color1, #fff)" d="M16.471 10.815c-0.335 0.335-1.55 1.55-1.885 1.885l0.943 0.943c0.364-0.364 1.522-1.522 1.885-1.885 0.781-0.781 2.047-0.781 2.829 0s0.781 2.047 0 2.829c-0.364 0.364-1.522 1.522-1.885 1.885l0.943 0.943c0.335-0.335 1.55-1.55 1.885-1.885 1.301-1.301 1.301-3.413 0-4.714s-3.413-1.301-4.714 0zM15.529 21.185c0.335-0.335 1.55-1.55 1.885-1.885l-0.943-0.943c-0.364 0.364-1.522 1.522-1.885 1.885-0.781 0.781-2.047 0.781-2.829 0s-0.781-2.047 0-2.829c0.364-0.364 1.522-1.522 1.885-1.885l-0.943-0.943c-0.335 0.335-1.55 1.55-1.885 1.885-1.301 1.301-1.301 3.413 0 4.714s3.413 1.301 4.714 0z"></path>
</symbol>
<symbol id="icon-logo-indiev" viewBox="0 0 28 32">
<path fill="#1c08ff" style="fill: var(--color1, #1c08ff)" d="M5.629 0.603c-2.441-1.472-5.554 0.286-5.554 3.137v24.574c0 2.851 3.113 4.609 5.554 3.137l20.378-12.287c2.362-1.424 2.362-4.85 0-6.274l-20.378-12.287z"></path>
</symbol>
<symbol id="icon-pencil" viewBox="0 0 32 32">
<path d="M27 0c2.761 0 5 2.239 5 5 0 1.126-0.372 2.164-1 3l-2 2-7-7 2-2c0.836-0.628 1.874-1 3-1zM2 23l-2 9 9-2 18.5-18.5-7-7-18.5 18.5zM22.362 11.362l-14 14-1.724-1.724 14-14 1.724 1.724z"></path>
</symbol>
<symbol id="icon-bin" viewBox="0 0 32 32">
<path d="M4 10v20c0 1.1 0.9 2 2 2h18c1.1 0 2-0.9 2-2v-20h-22zM10 28h-2v-14h2v14zM14 28h-2v-14h2v14zM18 28h-2v-14h2v14zM22 28h-2v-14h2v14z"></path>
<path d="M26.5 4h-6.5v-2.5c0-0.825-0.675-1.5-1.5-1.5h-7c-0.825 0-1.5 0.675-1.5 1.5v2.5h-6.5c-0.825 0-1.5 0.675-1.5 1.5v2.5h26v-2.5c0-0.825-0.675-1.5-1.5-1.5zM18 4h-6v-1.975h6v1.975z"></path>
</symbol>
<symbol id="icon-lupa" viewBox="0 0 32 32">
<path fill="#fff" style="fill: var(--color1, #fff)" d="M20.667 18.667h-1.053l-0.373-0.36c1.307-1.52 2.093-3.493 2.093-5.64 0-4.787-3.88-8.667-8.667-8.667s-8.667 3.88-8.667 8.667c0 4.787 3.88 8.667 8.667 8.667 2.147 0 4.12-0.787 5.64-2.093l0.36 0.373v1.053l6.667 6.653 1.987-1.987-6.653-6.667zM12.667 18.667c-3.32 0-6-2.68-6-6s2.68-6 6-6c3.32 0 6 2.68 6 6s-2.68 6-6 6zM9.773 16.667l2.853-2.040 2.853 2.040-1.107-3.28 2.867-2h-3.493l-1.12-3.387-1.12 3.387h-3.507l2.853 1.987-1.080 3.293z"></path>
</symbol>
<symbol id="icon-two-lines" viewBox="0 0 34 32">
<path fill="#fff" style="fill: var(--color1, #fff)" d="M0.167 29.317l12.5-12.517 6.667 6.667 11.817-13.283 2.35 2.35-14.167 15.933-6.667-6.667-10 10.017-2.5-2.5zM2.667 21.817l10-10.017 6.667 6.667 14.167-15.933-2.35-2.35-11.817 13.283-6.667-6.667-12.5 12.517 2.5 2.5z"></path>
</symbol>
<symbol id="icon-vector-star" viewBox="0 0 32 32">
<path fill="#fff" style="fill: var(--color1, #fff)" d="M11.273 32c-0.945 0-1.752-0.333-2.418-1s-1-1.473-1-2.418c0-0.558 0.133-1.091 0.4-1.6s0.642-0.921 1.127-1.236c0.485-0.339 0.885-0.764 1.2-1.273s0.533-1.055 0.655-1.636c-0.097-0.048-0.2-0.097-0.309-0.145s-0.212-0.097-0.309-0.145l-3.2 1.127c-0.339 0.121-0.685 0.23-1.036 0.327s-0.709 0.145-1.073 0.145c-1.673 0-2.976-0.679-3.909-2.036s-1.4-3.030-1.4-5.018c0-1.042 0.327-1.873 0.982-2.491s1.455-0.927 2.4-0.927c0.558 0 1.091 0.133 1.6 0.4s0.921 0.642 1.236 1.127c0.339 0.485 0.77 0.879 1.291 1.182s1.073 0.515 1.655 0.636l0.291-0.582-1.127-3.2c-0.121-0.339-0.23-0.679-0.327-1.018s-0.145-0.691-0.145-1.055c0-1.673 0.673-2.982 2.018-3.927s3.024-1.418 5.036-1.418c1.067 0 1.903 0.333 2.509 1s0.909 1.473 0.909 2.418c0 0.558-0.133 1.091-0.4 1.6s-0.642 0.921-1.127 1.236c-0.485 0.339-0.885 0.764-1.2 1.273s-0.533 1.055-0.655 1.636c0.097 0.049 0.2 0.097 0.309 0.145s0.212 0.097 0.309 0.145l3.2-1.127c0.339-0.121 0.685-0.23 1.036-0.327s0.709-0.145 1.073-0.145c1.673 0 2.976 0.721 3.909 2.164s1.4 3.073 1.4 4.891c0 0.945-0.327 1.752-0.982 2.418s-1.455 1-2.4 1c-0.558 0-1.091-0.127-1.6-0.382s-0.921-0.624-1.236-1.109c-0.339-0.485-0.77-0.885-1.291-1.2s-1.073-0.533-1.655-0.655l-0.291 0.582 1.127 3.236c0.121 0.339 0.23 0.661 0.327 0.964s0.145 0.624 0.145 0.964c0.024 1.867-0.679 3.242-2.109 4.127s-3.079 1.327-4.945 1.327zM13.091 20.364c0.412 0 0.758-0.139 1.036-0.418s0.418-0.624 0.418-1.036-0.139-0.758-0.418-1.036c-0.279-0.279-0.624-0.418-1.036-0.418s-0.758 0.139-1.036 0.418c-0.279 0.279-0.418 0.624-0.418 1.036s0.139 0.758 0.418 1.036c0.279 0.279 0.624 0.418 1.036 0.418zM25.455 13.091c0-1.818-0.636-3.364-1.909-4.636s-2.818-1.909-4.636-1.909c1.818 0 3.364-0.636 4.636-1.909s1.909-2.818 1.909-4.636c0 1.818 0.636 3.364 1.909 4.636s2.818 1.909 4.636 1.909c-1.818 0-3.364 0.636-4.636 1.909s-1.909 2.818-1.909 4.636z"></path>
</symbol>


</defs>
</svg>
