<svg width="256" height="256" viewBox="0 0 256 256" fill="none" xmlns="http://www.w3.org/2000/svg">
<rect width="256" height="256" rx="128" fill="white"/>
<mask id="mask0_662_655" style="mask-type:luminance" maskUnits="userSpaceOnUse" x="53" y="58" width="139" height="140">
<path d="M191.478 58.8794H53.2383V197.119H191.478V58.8794Z" fill="white"/>
</mask>
<g mask="url(#mask0_662_655)">
<path d="M151.244 90.3003C147.513 90.3003 144.371 93.4421 144.371 97.173V171.791C144.371 175.522 147.513 178.664 151.244 178.664C154.975 178.664 158.116 175.522 158.116 171.791V97.173C158.116 93.4421 155.171 90.3003 151.244 90.3003Z" fill="#202020"/>
<path d="M126.146 80.4795C122.415 80.4795 119.273 83.6213 119.273 87.3522V181.606C119.273 185.338 122.415 188.479 126.146 188.479C129.877 188.479 133.019 185.338 133.019 181.606V87.3522C133.019 83.6213 129.877 80.4795 126.146 80.4795Z" fill="#202020"/>
<path d="M101.013 104.046C97.2824 104.046 94.1406 107.188 94.1406 110.919V158.046C94.1406 161.778 97.2824 164.919 101.013 164.919C104.744 164.919 107.886 161.778 107.886 158.046V110.919C107.886 107.188 104.744 104.046 101.013 104.046Z" fill="#202020"/>
<path d="M75.6462 113.863C71.9153 113.863 68.7734 117.005 68.7734 120.736V148.226C68.7734 151.957 71.9153 155.1 75.6462 155.1C79.3771 155.1 82.5189 151.957 82.5189 148.226V120.736C82.5189 117.005 79.5734 113.863 75.6462 113.863Z" fill="#202020"/>
<path d="M176.545 113.859C172.814 113.859 169.672 117.001 169.672 120.732V148.223C169.672 151.954 172.814 155.095 176.545 155.095C180.276 155.095 183.418 151.954 183.418 148.223V120.732C183.418 117.001 180.276 113.859 176.545 113.859Z" fill="#202020"/>
<path d="M85.5575 69.0499L89.5362 81.633C89.7627 82.3124 90.2802 82.8622 90.9596 83.0564L103.543 87.0351C105.581 87.6821 105.581 90.5609 103.543 91.2079L90.9596 95.1866C90.2802 95.413 89.7303 95.9306 89.5362 96.6099L85.5575 109.193C84.9105 111.231 82.0317 111.231 81.3847 109.193L77.406 96.6099C77.1795 95.9306 76.662 95.3807 75.9826 95.1866L63.3995 91.2079C61.3616 90.5609 61.3616 87.6821 63.3995 87.0351L75.9826 83.0564C76.662 82.8299 77.2118 82.3124 77.406 81.633L81.3847 69.0499C82.0317 67.012 84.9105 67.012 85.5575 69.0499Z" fill="#202020"/>
</g>
</svg>
