<svg width="90" height="65" viewBox="0 0 90 65" fill="none" xmlns="http://www.w3.org/2000/svg">
<g clip-path="url(#clip0_142_7068)">
<path d="M0.960205 19.4906V45.8436L11.3141 47.7259L21.668 45.8436V19.4906L11.3141 17.6083L0.960205 19.4906Z" fill="#1E88E5"/>
<path d="M71.3666 32.6669V59.0198C71.3666 62.1445 68.5918 64.6669 65.1543 64.6669H21.6679L19.5972 55.2551L21.6679 45.8434H50.6588V32.6669L61.0127 30.7845L71.3666 32.6669Z" fill="#4CAF50"/>
<path d="M71.3666 6.31405V32.667H50.6588V19.4905H21.6679L19.5972 10.0788L21.6679 0.666992H65.1543C68.5918 0.666992 71.3666 3.18935 71.3666 6.31405Z" fill="#FBC02D"/>
<path d="M21.668 45.8435V64.667H7.17254C3.73505 64.667 0.960205 62.1447 0.960205 59.02V45.8435H21.668Z" fill="#1565C0"/>
<path d="M21.6682 0.666992V19.4905H0.960449L21.6682 0.666992Z" fill="#E53935"/>
<path d="M73.438 32.6669L71.3672 48.5728L50.6594 32.6669L71.3672 16.761L73.438 32.6669Z" fill="#2E7D32"/>
<path d="M90.0042 6.52119V58.813C90.0042 60.3941 87.9748 61.2788 86.6288 60.2812L71.3672 48.573V16.7612L86.6288 5.05295C87.9748 4.05531 90.0042 4.94001 90.0042 6.52119Z" fill="#4CAF50"/>
</g>
<defs>
<clipPath id="clip0_142_7068">
<rect width="89.0435" height="64" fill="white" transform="translate(0.960449 0.666992)"/>
</clipPath>
</defs>
</svg>
