<svg xmlns="http://www.w3.org/2000/svg" xmlns:xlink="http://www.w3.org/1999/xlink" version="1.1" width="256" height="256" viewBox="0 0 256 256" xml:space="preserve">

<defs>
</defs>
<g style="stroke: none; stroke-width: 0; stroke-dasharray: none; stroke-linecap: butt; stroke-linejoin: miter; stroke-miterlimit: 10; fill: none; fill-rule: nonzero; opacity: 1;" transform="translate(1.4065934065934016 1.4065934065934016) scale(2.81 2.81)" >
	<path d="M 6.316 75.013 c 0.027 2.411 0.901 4.213 2.337 5.261 c 0.184 0.134 0.385 0.246 0.587 0.355 l -0.004 0.012 l 0.118 0.057 c 0.041 0.021 0.083 0.04 0.124 0.06 l 17.797 8.561 l 0.738 -0.428 c -0.423 -0.898 -0.671 -1.965 -0.685 -3.205 l -0.231 -20.726 l -0.209 -18.781 c -0.039 -3.497 1.713 -7.447 4.406 -10.581 L 9.962 25.318 c -2.508 3.068 -4.124 6.833 -4.086 10.187 l 0.209 18.781 L 6.316 75.013 z" style="stroke: none; stroke-width: 1; stroke-dasharray: none; stroke-linecap: butt; stroke-linejoin: miter; stroke-miterlimit: 10; fill: rgb(228,0,0); fill-rule: nonzero; opacity: 1;" transform=" matrix(1 0 0 1 0 0) " stroke-linecap="round" />
	<path d="M 62.715 0.538 L 62.71 0.546 c -1.846 -0.86 -4.335 -0.735 -7.07 0.595 L 15.923 20.457 c -2.24 1.089 -4.295 2.823 -5.961 4.861 c 0.9 7.946 6.189 11.544 18.007 8.677 c 1.606 -1.869 6.871 -1.846 8.967 -2.865 l 39.717 -19.316 c 1.36 -0.662 2.659 -1.021 3.85 -1.115 l 0.11 -1.536 L 62.715 0.538 z" style="stroke: none; stroke-width: 1; stroke-dasharray: none; stroke-linecap: butt; stroke-linejoin: miter; stroke-miterlimit: 10; fill: rgb(241,0,0); fill-rule: nonzero; opacity: 1;" transform=" matrix(1 0 0 1 0 0) " stroke-linecap="round" />
	<path d="M 73.938 9.789 L 34.119 28.714 c -5.626 2.674 -10.186 9.402 -10.186 15.028 V 62.67 v 2.006 V 83.56 c 0 5.626 4.561 8.019 10.186 5.345 l 13.736 -6.528 l 26.083 -12.396 c 5.626 -2.674 10.186 -9.402 10.186 -15.028 V 15.134 C 84.125 9.508 79.564 7.115 73.938 9.789 z" style="stroke: none; stroke-width: 1; stroke-dasharray: none; stroke-linecap: butt; stroke-linejoin: miter; stroke-miterlimit: 10; fill: rgb(255,0,0); fill-rule: nonzero; opacity: 1;" transform=" matrix(1 0 0 1 0 0) " stroke-linecap="round" />
	<path d="M 63.015 42.66 c -0.522 -0.047 -1.022 -0.128 -1.613 -0.188 c 0.59 -0.644 1.136 -1.221 1.658 -1.765 c 2.43 -2.473 3.771 -5.79 3.361 -8.321 c -0.591 -4.193 -5.747 -4.332 -9.653 -0.25 c -3.998 4.194 -7.995 8.343 -11.947 12.583 c -3.134 3.375 -3.589 6.089 -3.089 8.804 c 0.318 1.689 1.545 2.468 3.157 2.633 c 0.568 0.048 1.113 0.107 1.726 0.179 c -0.681 0.733 -1.294 1.387 -1.953 2.041 c -2.907 3.222 -3.907 7.467 -2.271 9.733 c 1.726 2.382 5.724 1.709 8.926 -1.539 c 3.452 -3.594 6.905 -7.234 10.335 -10.863 c 0.818 -0.866 1.681 -1.707 2.408 -2.644 C 67.717 48.285 67.172 43.025 63.015 42.66 z M 50.818 55.907 v -9.926 l 8.586 0.871 L 50.818 55.907 z" style="stroke: none; stroke-width: 1; stroke-dasharray: none; stroke-linecap: butt; stroke-linejoin: miter; stroke-miterlimit: 10; fill: rgb(255,255,255); fill-rule: nonzero; opacity: 1;" transform=" matrix(1 0 0 1 0 0) " stroke-linecap="round" />
</g>
</svg>