<svg width="310" height="388" viewBox="0 0 310 388" fill="none" xmlns="http://www.w3.org/2000/svg">
<path fill-rule="evenodd" clip-rule="evenodd" d="M115.618 387.903C222.55 387.903 309.236 301.217 309.236 194.285C309.236 87.3527 222.55 0.666992 115.618 0.666992C8.68575 0.666992 -78 87.3527 -78 194.285C-78 301.217 8.68575 387.903 115.618 387.903Z" fill="url(#paint0_linear_125_6025)"/>
<path fill-rule="evenodd" clip-rule="evenodd" d="M251.42 387.903C283.351 387.903 309.236 362.018 309.236 330.087C309.236 298.155 283.351 272.27 251.42 272.27C219.488 272.27 193.603 298.155 193.603 330.087C193.603 362.018 219.488 387.903 251.42 387.903Z" fill="url(#paint1_linear_125_6025)"/>
<defs>
<linearGradient id="paint0_linear_125_6025" x1="140.348" y1="479.446" x2="402.851" y2="208.637" gradientUnits="userSpaceOnUse">
<stop stop-color="#CD10FF"/>
<stop offset="1" stop-color="#9F06FF"/>
</linearGradient>
<linearGradient id="paint1_linear_125_6025" x1="253.448" y1="412.815" x2="312.353" y2="330.878" gradientUnits="userSpaceOnUse">
<stop stop-color="#FFD7A9"/>
<stop offset="1" stop-color="#FFAE70"/>
</linearGradient>
</defs>
</svg>
