<svg width="45" height="55" viewBox="0 0 45 55" fill="none" xmlns="http://www.w3.org/2000/svg">
<path d="M8.46387 7.58682V7.59083L8.58258 7.92852C8.56894 7.88922 8.52483 7.7697 8.46387 7.58682Z" fill="#69C9D0"/>
<path d="M6.1355 34.3167L6.26704 34.6881C6.2502 34.6456 6.20207 34.5156 6.1355 34.3167ZM11.3412 25.9002C11.5722 23.9045 12.3567 22.7872 13.835 21.6417C15.9501 20.0905 18.5923 20.968 18.5923 20.968V15.7623C19.2346 15.7451 19.8772 15.7849 20.5125 15.881V22.5802C20.5125 22.5802 17.8712 21.7027 15.756 23.2548C14.2785 24.3994 13.4925 25.5175 13.2622 27.5132C13.255 28.5968 13.4499 30.0134 14.3475 31.2382C14.1256 31.1195 13.8994 30.9842 13.6689 30.8323C11.6917 29.4471 11.3316 27.3688 11.3412 25.9002ZM31.422 6.13695C29.967 4.47337 29.4168 2.79375 29.2178 1.61385H31.0482C31.0482 1.61385 30.6833 4.70759 33.3431 7.74999L33.38 7.7909C32.6631 7.32042 32.0057 6.76508 31.422 6.13695ZM40.2396 10.8534V17.4178C40.2396 17.4178 37.9039 17.3224 36.1753 16.8636C33.7618 16.2219 32.2105 15.2377 32.2105 15.2377C32.2105 15.2377 31.1389 14.5358 31.0523 14.4869V28.0426C31.0523 28.7974 30.8541 30.6823 30.2501 32.2545C29.4617 34.3111 28.2449 35.661 28.0211 35.937C28.0211 35.937 26.5412 37.7618 23.9303 38.9906C21.5769 40.0991 19.5107 40.071 18.8931 40.0991C18.8931 40.0991 15.3213 40.2467 12.1072 38.0674C11.4122 37.587 10.7634 37.043 10.1693 36.4423L10.1854 36.4543C13.4002 38.6337 16.9712 38.4861 16.9712 38.4861C17.5896 38.458 19.6559 38.4861 22.0085 37.3775C24.6169 36.1487 26.0992 34.3239 26.0992 34.3239C26.3206 34.048 27.543 32.698 28.3283 30.6406C28.9307 29.0693 29.1304 27.1835 29.1304 26.4287V12.8747C29.217 12.9244 30.2878 13.6263 30.2878 13.6263C30.2878 13.6263 31.8399 14.6112 34.2535 15.2521C35.9828 15.7109 38.3178 15.8064 38.3178 15.8064V10.6625C39.1167 10.8493 39.7977 10.8999 40.2396 10.8534Z" fill="#EE1D52"/>
<path d="M38.3184 10.6625V15.8048C38.3184 15.8048 35.9835 15.7093 34.2541 15.2505C31.8406 14.6088 30.2885 13.6246 30.2885 13.6246C30.2885 13.6246 29.2177 12.9228 29.131 12.8731V26.4303C29.131 27.1851 28.9329 29.0709 28.3289 30.6422C27.5404 32.6996 26.3236 34.0496 26.0998 34.3255C26.0998 34.3255 24.6192 36.1503 22.0091 37.3792C19.6565 38.4877 17.5903 38.4596 16.9718 38.4877C16.9718 38.4877 13.4008 38.6353 10.186 36.4559L10.1699 36.4439C9.83052 36.101 9.51102 35.7389 9.21302 35.3594C8.18712 34.0544 7.55826 32.5111 7.40025 32.0708C7.39997 32.0689 7.39997 32.067 7.40025 32.0652C7.14598 31.3 6.61177 29.4623 6.68477 27.6824C6.81391 24.5422 7.87269 22.6147 8.15263 22.1318C8.89402 20.8151 9.85829 19.6369 11.0025 18.6499C12.0122 17.7981 13.1567 17.1204 14.389 16.6446C15.7212 16.0859 17.1477 15.7864 18.5921 15.7623V20.968C18.5921 20.968 15.9499 20.0937 13.8356 21.6417C12.3573 22.7872 11.5728 23.9045 11.3418 25.9001C11.3322 27.3688 11.6923 29.4471 13.6679 30.8331C13.8984 30.9855 14.1246 31.1208 14.3465 31.239C14.6917 31.7071 15.1117 32.115 15.5898 32.4462C17.5197 33.7207 19.1367 33.8098 21.2046 32.982C22.5834 32.4285 23.6213 31.1812 24.1026 29.7992C24.405 28.9361 24.401 28.0674 24.401 27.1691V1.61385H29.2136C29.4126 2.79375 29.9628 4.47337 31.4178 6.13695C32.0015 6.76508 32.6589 7.32042 33.3758 7.7909C33.5875 8.0195 34.6704 9.14967 36.0605 9.8435C36.7792 10.2021 37.5368 10.4769 38.3184 10.6625Z" fill="black"/>
<path d="M5.48486 30.4722V30.4762L5.60358 30.8139C5.58994 30.7746 5.54582 30.6551 5.48486 30.4722Z" fill="#69C9D0"/>
<path d="M14.389 16.6446C13.1567 17.1204 12.0123 17.7981 11.0025 18.6499C9.85793 19.6392 8.8939 20.8198 8.15344 22.1391C7.8735 22.6203 6.81471 24.5494 6.68557 27.6897C6.61258 29.4695 7.14679 31.3072 7.40106 32.0724C7.40078 32.0742 7.40078 32.0761 7.40106 32.078C7.56148 32.5143 8.18793 34.0576 9.21383 35.3667C9.51183 35.7461 9.83132 36.1082 10.1707 36.4511C9.08324 35.699 8.11335 34.7896 7.29277 33.7528C6.27569 32.459 5.64844 30.9318 5.48481 30.481C5.48462 30.4778 5.48462 30.4746 5.48481 30.4714V30.4658C5.22974 29.7013 4.69393 27.8629 4.76853 26.0806C4.89767 22.9404 5.95645 21.0129 6.23639 20.53C6.97664 19.2106 7.9407 18.0299 9.08549 17.0408C10.095 16.1888 11.2395 15.5111 12.472 15.0356C13.2407 14.7166 14.0416 14.4813 14.8607 14.3337C16.0951 14.1182 17.3559 14.0996 18.5961 14.2784V15.7623C17.1504 15.7859 15.7225 16.0854 14.389 16.6446Z" fill="#69C9D0"/>
<path d="M29.2177 1.61385H24.4051V27.1699C24.4051 28.0682 24.4051 28.9345 24.1067 29.8C23.6206 31.1812 22.5867 32.4285 21.2087 32.982C19.14 33.813 17.523 33.7207 15.5939 32.4462C15.115 32.1164 14.6939 31.7099 14.3474 31.243C15.9909 32.1197 17.462 32.1045 19.2844 31.3729C20.6616 30.8195 21.6971 29.5722 22.1816 28.1902C22.4848 27.3271 22.4808 26.4584 22.4808 25.5609V0H29.1263C29.1263 0 29.0517 0.635272 29.2177 1.61385ZM38.3185 9.24031V10.6625C37.5383 10.4766 36.782 10.2019 36.0646 9.8435C34.6745 9.14967 33.5916 8.0195 33.3799 7.7909C33.6256 7.95222 33.8806 8.099 34.1435 8.23046C35.8335 9.07428 37.4979 9.32614 38.3185 9.24031Z" fill="#69C9D0"/>
<path d="M29.3838 50.075C29.3833 50.2579 29.4103 50.4399 29.464 50.6148C29.4666 50.6271 29.4704 50.6392 29.4752 50.6509C29.6034 51.0646 29.8607 51.4265 30.2094 51.6834C30.5581 51.9403 30.98 52.0788 31.4131 52.0786V54.1312C30.4137 54.1312 29.6982 54.1665 28.6057 53.5224C27.3673 52.7877 26.6694 51.4442 26.6694 50.0493C26.6694 48.6103 27.4507 47.1689 28.775 46.4743C29.7375 45.9706 30.4666 45.9673 31.4155 45.9673V48.0191C30.8771 48.0191 30.3607 48.233 29.98 48.6138C29.5993 48.9945 29.3854 49.5109 29.3854 50.0493L29.3838 50.075Z" fill="#69C9D0"/>
<path d="M33.4583 50.075C33.4584 50.2579 33.4314 50.4398 33.3781 50.6148C33.3781 50.6268 33.3709 50.6388 33.3669 50.6509C33.2385 51.0645 32.9811 51.4262 32.6324 51.6831C32.2838 51.94 31.862 52.0786 31.429 52.0786V54.1312C32.4276 54.1312 33.1439 54.1665 34.2323 53.5224C35.4748 52.7877 36.1742 51.4442 36.1742 50.0493C36.1742 48.6103 35.393 47.1689 34.0687 46.4743C33.1062 45.9706 32.377 45.9673 31.429 45.9673V48.0191C31.9672 48.0194 32.4834 48.2333 32.864 48.614C33.2445 48.9947 33.4583 49.511 33.4583 50.0493V50.075Z" fill="#EE1D52"/>
<path d="M0 44.1056H7.51658L6.82195 46.1735H4.85197V54.0879H2.43521V46.1735H0V44.1056ZM19.9204 44.1056V46.1735H22.3556V54.0879H24.7756V46.1735H26.7424L27.437 44.1056H19.9204ZM9.15208 46.4622C9.3837 46.4621 9.61007 46.3933 9.80256 46.2644C9.99506 46.1356 10.145 45.9526 10.2335 45.7386C10.322 45.5245 10.345 45.2891 10.2997 45.0619C10.2544 44.8348 10.1427 44.6262 9.97879 44.4625C9.8149 44.2989 9.60616 44.1875 9.37896 44.1424C9.15176 44.0974 8.91631 44.1208 8.70238 44.2095C8.48846 44.2983 8.30566 44.4485 8.17711 44.6412C8.04857 44.8339 7.98004 45.0604 7.9802 45.292C7.9802 45.4458 8.01052 45.5981 8.06943 45.7402C8.12834 45.8823 8.21469 46.0114 8.32353 46.12C8.43237 46.2287 8.56157 46.3149 8.70374 46.3736C8.84591 46.4323 8.99826 46.4625 9.15208 46.4622ZM7.9802 54.0879H10.3528V47.29H7.9802V54.0879ZM18.8889 46.4029H16.1136L13.7217 48.7948V44.1137H11.3643L11.3571 54.0879H13.7369V51.4891L14.4773 50.8145L16.7874 54.0847H19.3317L15.9853 49.3025L18.8889 46.4029ZM41.6504 49.3041L44.5516 46.4029H41.7771L39.3844 48.7948V44.1137H37.0278L37.0166 54.0879H39.3973V51.4891L40.1448 50.8145L42.4549 54.0847H45L41.6504 49.3041ZM35.5495 50.0477C35.5495 52.3016 33.6975 54.1296 31.4131 54.1296C29.1286 54.1296 27.2766 52.3016 27.2766 50.0477C27.2766 47.7938 29.1286 45.9657 31.4131 45.9657C33.6975 45.9657 35.5495 47.7946 35.5495 50.0493V50.0477ZM33.4424 50.0477C33.4424 49.6463 33.3234 49.254 33.1004 48.9202C32.8774 48.5865 32.5605 48.3264 32.1896 48.1728C31.8188 48.0192 31.4108 47.979 31.0171 48.0573C30.6235 48.1356 30.2619 48.3289 29.9781 48.6127C29.6943 48.8965 29.501 49.2581 29.4227 49.6518C29.3444 50.0454 29.3846 50.4535 29.5382 50.8243C29.6918 51.1951 29.9519 51.512 30.2856 51.735C30.6193 51.958 31.0117 52.077 31.4131 52.077C31.951 52.077 32.4669 51.8634 32.8474 51.4832C33.228 51.103 33.442 50.5872 33.4424 50.0493V50.0477Z" fill="black"/>
</svg>
