<svg width="104" height="30" viewBox="0 0 104 30" fill="none" xmlns="http://www.w3.org/2000/svg">
<path d="M23.2491 13.8348C23.1453 16.1 21.5641 19.2013 18.5054 23.1378C15.3427 27.2497 12.667 29.3059 10.4783 29.3059C9.123 29.3059 7.97499 28.0541 7.03805 25.5494C6.41216 23.2538 5.78627 20.958 5.16062 18.6627C4.46446 16.1594 3.7183 14.9062 2.91979 14.9062C2.74598 14.9062 2.13684 15.2727 1.09448 16.0023L0 14.5919C1.14777 13.583 2.28022 12.5739 3.39474 11.5636C4.9255 10.2401 6.07493 9.5442 6.84113 9.47392C8.65135 9.30012 9.76563 10.538 10.1838 13.1875C10.6356 16.0464 10.9483 17.8246 11.124 18.5205C11.6459 20.8925 12.2199 22.077 12.8472 22.077C13.3342 22.077 14.0652 21.3078 15.0406 19.7692C16.0144 18.2307 16.5365 17.06 16.6065 16.2556C16.7454 14.9277 16.2235 14.2622 15.0406 14.2622C14.4834 14.2622 13.9094 14.3905 13.3189 14.6437C14.4621 10.8981 16.6462 9.07867 19.8699 9.18244C22.26 9.25271 23.3866 10.8035 23.2491 13.8348Z" fill="#1AB7EB"/>
<path d="M33.062 2.59788C33.0271 3.46478 32.592 4.29655 31.7555 5.09341C30.8152 5.9938 29.701 6.44423 28.4129 6.44423C26.4286 6.44423 25.47 5.57875 25.5402 3.84635C25.5737 2.94596 26.1051 2.07882 27.1323 1.24706C28.1596 0.416708 29.2996 0 30.5544 0C31.2855 0 31.8944 0.287003 32.3828 0.857942C32.8698 1.43006 33.0957 2.0102 33.062 2.59788ZM37.6059 21.1717C36.6308 23.0156 35.2906 24.6855 33.5841 26.1814C31.2503 28.1991 28.9182 29.2082 26.5859 29.2082C25.5051 29.2082 24.6781 28.8602 24.1041 28.164C23.53 27.4681 23.26 26.5646 23.2952 25.4501C23.3287 24.3025 23.6859 22.5272 24.3649 20.1263C25.0443 17.7253 25.3846 16.4372 25.3846 16.2632C25.3846 15.3595 25.0702 14.9062 24.4444 14.9062C24.2354 14.9062 23.643 15.2727 22.6679 16.0023L21.4666 14.5919C22.5808 13.583 23.6949 12.5739 24.8092 11.5636C26.3064 10.2401 27.4207 9.54419 28.1535 9.47392C29.3012 9.37015 30.1453 9.70762 30.6855 10.4892C31.2244 11.2705 31.4244 12.284 31.2869 13.5325C30.8336 15.6495 30.3452 18.3375 29.8231 21.5976C29.7882 23.0904 30.3285 23.8351 31.4428 23.8351C31.9295 23.8351 32.7995 23.321 34.0541 22.2893C35.0983 21.4313 35.9513 20.6239 36.6138 19.8669L37.6059 21.1717Z" fill="#1AB7EB"/>
<path d="M70.223 21.1717C69.2479 23.0156 67.9077 24.6855 66.2012 26.1814C63.8675 28.1991 61.5351 29.2082 59.203 29.2082C56.9379 29.2082 55.842 27.9565 55.9121 25.4501C55.9455 24.3358 56.1639 22.9975 56.5639 21.4313C56.9638 19.8652 57.1822 18.6472 57.2171 17.7774C57.2523 16.4554 56.8506 15.7932 56.0113 15.7932C55.1032 15.7932 54.0209 16.8737 52.7633 19.0318C51.4353 21.2955 50.7179 23.4889 50.6142 25.6119C50.5441 27.1108 50.6906 28.2602 51.0538 29.0601C48.624 29.1302 46.9218 28.7288 45.9511 27.8588C45.0812 27.0926 44.6826 25.8227 44.7529 24.046C44.7864 22.9317 44.9574 21.8176 45.2656 20.7033C45.5726 19.5891 45.7434 18.5969 45.7785 17.7253C45.8488 16.4372 45.3771 15.7932 44.3666 15.7932C43.4936 15.7932 42.5519 16.7867 41.5414 18.771C40.5311 20.7552 39.9724 22.8279 39.8687 24.9862C39.7984 26.937 39.9236 28.2939 40.2427 29.0601C37.8523 29.1302 36.1551 28.6264 35.1507 27.5487C34.3173 26.6469 33.9374 25.2763 34.0074 23.4354C34.0411 22.5334 34.1998 21.274 34.4866 19.6591C34.7736 18.0444 34.934 16.7867 34.9675 15.8832C35.0361 15.2588 34.879 14.9458 34.4975 14.9458C34.2883 14.9458 33.6961 15.2984 32.7207 16.0023L31.4678 14.5919C31.6416 14.4546 32.7375 13.4441 34.7585 11.5636C36.2207 10.2066 37.2128 9.51071 37.7347 9.47557C38.64 9.40529 39.3711 9.77932 39.9281 10.5974C40.4851 11.4155 40.7646 12.3649 40.7646 13.4441C40.7646 13.7919 40.7294 14.1233 40.6608 14.4362C41.1827 13.6363 41.7919 12.9387 42.4892 12.3465C44.0905 10.9547 45.8839 10.1701 47.8682 9.99604C49.5746 9.85714 50.7927 10.2571 51.5254 11.1973C52.1162 11.9636 52.394 13.0609 52.3602 14.4881C52.6046 14.2806 52.8656 14.053 53.1448 13.8089C53.9448 12.8687 54.7277 12.1209 55.4939 11.5636C56.782 10.6233 58.1239 10.1015 59.5157 9.99604C61.187 9.85714 62.3884 10.2555 63.1194 11.1926C63.7453 11.9558 64.0245 13.0488 63.9559 14.4697C63.9208 15.442 63.6859 16.8556 63.2508 18.7115C62.814 20.5675 62.5975 21.6327 62.5975 21.9105C62.5624 22.6402 62.6327 23.1425 62.8065 23.4203C62.9808 23.6979 63.3972 23.8351 64.0599 23.8351C64.5466 23.8351 65.4166 23.321 66.6712 22.2893C67.7155 21.4313 68.5685 20.6239 69.2309 19.8669L70.223 21.1717Z" fill="#1AB7EB"/>
<path d="M77.9525 15.6649C77.986 14.7308 77.6044 14.2622 76.8047 14.2622C75.7607 14.2622 74.7014 14.981 73.6236 16.4188C72.5461 17.8567 71.9891 19.2334 71.9554 20.5491C71.9356 20.5491 71.9356 20.775 71.9554 21.2252C73.6588 20.6024 75.1362 19.6501 76.388 18.3679C77.3955 17.26 77.9171 16.3577 77.9525 15.6649ZM89.809 21.1184C88.7985 22.7883 86.8144 24.4565 83.8548 26.1248C80.1641 28.2463 76.4201 29.3059 72.6256 29.3059C69.8049 29.3059 67.7841 28.3654 66.566 26.4865C65.6958 25.1985 65.2777 23.6672 65.3128 21.8907C65.3466 19.0716 66.6012 16.3915 69.0736 13.8485C71.7891 11.0646 74.9929 9.67084 78.6836 9.67084C82.0965 9.67084 83.9067 11.0613 84.1159 13.8393C84.2545 15.6097 83.2794 17.4338 81.1914 19.3098C78.9614 21.3596 76.1576 22.6617 72.7813 23.217C73.4069 24.0856 74.3472 24.5193 75.6018 24.5193C78.1081 24.5193 80.8419 23.8825 83.8027 22.6065C85.9258 21.7108 87.5974 20.7795 88.8169 19.8147L89.809 21.1184Z" fill="#1AB7EB"/>
<path d="M98.085 17.4201C98.1201 16.4785 97.989 15.6144 97.6928 14.8298C97.3966 14.0455 96.9695 13.6516 96.4137 13.6516C94.6372 13.6516 93.1748 14.6117 92.027 16.5304C91.0502 18.101 90.5281 19.7754 90.4595 21.5535C90.4246 22.4265 90.5816 23.1944 90.9295 23.8566C91.3111 24.6245 91.8513 25.0074 92.5489 25.0074C94.1151 25.0074 95.4567 24.0842 96.571 22.2341C97.511 20.6989 98.0149 19.0945 98.085 17.4201ZM103.987 17.6171C103.847 20.8163 102.664 23.5804 100.436 25.9095C98.2074 28.2388 95.4383 29.4035 92.1308 29.4035C89.3803 29.4035 87.2907 28.5166 85.8637 26.7429C84.8197 25.4227 84.2442 23.7712 84.1405 21.79C83.965 18.8 85.0439 16.0523 87.3791 13.5493C89.8855 10.7684 93.0359 9.37794 96.8318 9.37794C99.2681 9.37794 101.113 10.196 102.368 11.8291C103.552 13.325 104.091 15.2543 103.987 17.6171Z" fill="#1AB7EB"/>
</svg>
