<svg width="104" height="24" viewBox="0 0 104 24" fill="none" xmlns="http://www.w3.org/2000/svg">
<path d="M32.4776 3.64215C32.0899 2.20958 30.9709 1.09052 29.5383 0.702871C26.9611 0 16.5884 0 16.5884 0C16.5884 0 6.21578 0.0212991 3.63858 0.72417C2.20601 1.11182 1.08695 2.23088 0.699305 3.66345C-0.0802428 8.24276 -0.38269 15.2203 0.720604 19.6165C1.10825 21.0491 2.22731 22.1681 3.65988 22.5558C6.23707 23.2586 16.6097 23.2586 16.6097 23.2586C16.6097 23.2586 26.9824 23.2586 29.5596 22.5558C30.9922 22.1681 32.1112 21.0491 32.4989 19.6165C33.321 15.0308 33.5745 8.05746 32.4776 3.64215Z" fill="#FF0000"/>
<path d="M13.2871 16.6133L21.892 11.6293L13.2871 6.64532V16.6133Z" fill="white"/>
<path d="M99.7827 6.75182C100.912 6.75182 101.764 6.96481 102.36 7.36949C102.956 7.77418 103.382 8.41315 103.638 9.28641C103.893 10.1597 104 11.3524 104 12.886V15.378H98.5261V16.1447L98.6113 18.2533C98.6752 18.7219 98.7817 19.0627 98.952 19.2757C99.1224 19.4887 99.3993 19.5952 99.7614 19.5952C100.251 19.5952 100.592 19.4035 100.762 19.0201C100.954 18.6367 101.039 17.9978 101.061 17.1245L103.893 17.2949C103.915 17.4227 103.915 17.5931 103.915 17.8061C103.915 19.1479 103.553 20.149 102.807 20.8092C102.062 21.4695 101.039 21.8103 99.6975 21.8103C98.0788 21.8103 96.9499 21.2991 96.311 20.2981C95.672 19.297 95.3312 17.7209 95.3312 15.6123V13.0351C95.4036 9.41421 96.0405 6.76247 99.7827 6.75182ZM60.4007 7.02871V17.6996C60.4007 18.3385 60.4645 18.8071 60.6136 19.084C60.9161 19.6761 61.6999 19.5249 62.1259 19.2331C62.3718 19.0669 62.57 18.8393 62.701 18.5728V7.02871H65.9597V21.576H63.4038L63.1269 19.7869H63.063C62.3602 21.1287 61.3165 21.8103 59.9321 21.8103C57.8012 21.8049 57.28 20.2698 57.1559 18.7107L57.1477 18.6006C57.1315 18.3621 57.1239 18.1238 57.1206 17.8913V7.02871H60.4007ZM77.2057 7.02871V17.6996C77.2057 18.3385 77.2695 18.8071 77.4186 19.084C77.7211 19.6761 78.5049 19.5249 78.9309 19.2331C79.1768 19.0669 79.375 18.8393 79.506 18.5728V7.02871H82.7647V21.576H80.2088L79.9319 19.7869H79.868C79.1652 21.1287 78.1215 21.8103 76.7371 21.8103C74.6062 21.8049 74.085 20.2698 73.9609 18.7107L73.9527 18.6006C73.9365 18.3621 73.9289 18.1238 73.9256 17.8913V7.02871H77.2057ZM50.9438 6.75182C52.0088 6.75182 52.8821 6.96481 53.521 7.41209C54.16 7.85937 54.6499 8.54095 54.9481 9.47811C55.2463 10.4153 55.3954 11.6719 55.3954 13.2268V15.3354C55.3954 16.8902 55.2463 18.1255 54.9481 19.0627C54.6499 19.9999 54.1813 20.6814 53.521 21.1287C52.8608 21.5547 51.9662 21.789 50.8586 21.789C49.7085 21.8103 48.8139 21.576 48.1537 21.15C47.4934 20.7027 47.0248 20.0212 46.7479 19.084C46.471 18.1468 46.3432 16.9115 46.3432 15.3567V13.2481C46.3432 11.6932 46.4923 10.4153 46.8118 9.47811C47.1313 8.51965 47.6212 7.83808 48.3028 7.41209C48.9843 6.98611 49.8576 6.75182 50.9438 6.75182ZM87.8765 0.915863V8.58354H87.8978C88.196 8.02977 88.5794 7.58249 89.1119 7.2417C89.6092 6.90723 90.1952 6.7292 90.7945 6.73052C91.5826 6.73052 92.1789 6.94351 92.6262 7.3482C93.0735 7.77418 93.393 8.43445 93.5847 9.35031C93.7704 10.2376 93.8761 11.4646 93.8825 13.0121L93.8829 13.1629V15.4632C93.8829 17.6144 93.606 19.2118 93.0948 20.2342C92.5623 21.2565 91.7529 21.7677 90.6454 21.7677C90.0277 21.7677 89.4739 21.6186 88.9628 21.3417C88.5103 21.0781 88.1357 20.7002 87.8761 20.2466L87.8339 20.1703H87.77L87.4292 21.5547H84.7242V0.915863H87.8765ZM74.8414 1.66133V4.30242H71.604V21.576H68.4091V4.30242H65.1504V1.66133H74.8414ZM39.7192 1.66133L39.721 1.66935C39.7522 1.80788 40.1829 3.72236 40.6565 5.95275L40.6939 6.12947C40.7127 6.21812 40.7315 6.30722 40.7504 6.39665L40.7881 6.57595C40.7944 6.6059 40.8007 6.63588 40.807 6.66589L40.8448 6.84625C40.8511 6.87636 40.8574 6.90649 40.8637 6.93664L40.9014 7.11772L40.9563 7.38237C41.276 8.92689 41.5813 10.476 41.7639 11.5867H41.8491C42.0242 10.5903 42.2783 9.31525 42.5493 8.01349L42.6204 7.67346C42.656 7.50331 42.6919 7.33308 42.7278 7.16332L42.7838 6.89972C43.3051 4.44733 43.824 2.15629 43.9205 1.73151L43.9267 1.70408C43.9331 1.67592 43.9364 1.66133 43.9364 1.66133H47.1952L43.4253 15.1011V21.5547H40.2091V15.1224H40.1878L36.4604 1.66133H39.7192ZM50.8799 9.00953C50.4327 9.00953 50.1345 9.24382 49.9428 9.7337C49.7511 10.2236 49.6659 10.969 49.6659 12.0127V16.5494C49.6659 17.6144 49.7511 18.4024 49.9215 18.871C50.0919 19.3396 50.4114 19.5739 50.8799 19.5739C51.3272 19.5739 51.6467 19.3396 51.8384 18.871C52.0301 18.4024 52.1153 17.6144 52.1153 16.5494V12.0127C52.1153 10.969 52.0301 10.2023 51.8384 9.7337C51.6467 9.24382 51.3272 9.00953 50.8799 9.00953ZM88.4516 9.43551C88.192 9.67512 88.0073 9.9709 87.8975 10.3404L87.8765 10.4153V18.6793C88.1406 19.1266 88.5155 19.4248 89.1757 19.4461C89.5165 19.4461 89.7934 19.3183 90.0064 19.0627C90.2194 18.8071 90.3685 18.3811 90.4537 17.7848C90.5355 17.2122 90.578 16.4238 90.5813 15.4194L90.5815 15.2928V13.3971C90.5815 12.247 90.5389 11.3737 90.475 10.7561C90.3898 10.1384 90.2833 9.6911 90.0916 9.43551C89.721 8.90303 88.9202 8.90942 88.4516 9.43551ZM99.7188 8.94563C99.3567 8.96693 99.1011 9.07342 98.952 9.26512C98.7817 9.47811 98.6752 9.79759 98.6113 10.2662C98.5486 10.7254 98.5269 12.3301 98.5261 12.3941L98.5261 13.4397H100.912L100.911 12.5176L100.911 12.5353C100.91 12.8577 100.903 12.3482 100.889 11.7228L100.887 11.6388C100.873 11.089 100.854 10.4761 100.826 10.2662C100.762 9.77629 100.656 9.43551 100.486 9.24382C100.315 9.05212 100.06 8.94563 99.7188 8.94563Z" fill="#282828"/>
</svg>
